HIERARCHY
ROOT Hips
{
  OFFSET 53.0467 52.1723 -7.42147
  CHANNELS 6 Xposition Yposition Zposition Zrotation Xrotation Yrotation
  JOINT spine
  {
    OFFSET 0 6.84637 0.3937
    CHANNELS 3 Zrotation Xrotation Yrotation
    JOINT spine1
    {
      OFFSET 0 9.49621 0
      CHANNELS 3 Zrotation Xrotation Yrotation
      JOINT spine2
      {
        OFFSET 0 9.09909 0
        CHANNELS 3 Zrotation Xrotation Yrotation
        JOINT Neck
        {
          OFFSET 0 23.3612 1.11378
          CHANNELS 3 Zrotation Xrotation Yrotation
          JOINT Head
          {
            OFFSET 0 7.05802 0
            CHANNELS 3 Zrotation Xrotation Yrotation
            End Site
            {
              OFFSET 0 17.0844 -5.63419
            }
          }
        }
        JOINT RightShoulder
        {
          OFFSET -3.83136 9.82631 -0.533491
          CHANNELS 3 Zrotation Xrotation Yrotation
          JOINT RightArm
          {
            OFFSET 0 12.8881 0
            CHANNELS 3 Zrotation Xrotation Yrotation
            JOINT RightArmRoll
            {
              OFFSET 0 6.50617 0
              CHANNELS 3 Zrotation Xrotation Yrotation
              JOINT RightForeArm
              {
                OFFSET 0 18.9501 0
                CHANNELS 3 Zrotation Xrotation Yrotation
                JOINT RightForeArmRoll
                {
                  OFFSET 0 7.30092 0
                  CHANNELS 3 Zrotation Xrotation Yrotation
                  JOINT RightHand
                  {
                    OFFSET 0 14.6514 0
                    CHANNELS 3 Zrotation Xrotation Yrotation
                    End Site
                    {
                      OFFSET 0 0 0
                    }
                  }
                }
              }
            }
          }
        }
        JOINT LeftShoulder
        {
          OFFSET 3.83136 9.82631 -0.533491
          CHANNELS 3 Zrotation Xrotation Yrotation
          JOINT LeftArm
          {
            OFFSET 0 12.8881 0
            CHANNELS 3 Zrotation Xrotation Yrotation
            JOINT LeftArmRoll
            {
              OFFSET 0 6.50617 0
              CHANNELS 3 Zrotation Xrotation Yrotation
              JOINT LeftForeArm
              {
                OFFSET 0 18.9501 0
                CHANNELS 3 Zrotation Xrotation Yrotation
                JOINT LeftForeArmRoll
                {
                  OFFSET 0 7.30093 0
                  CHANNELS 3 Zrotation Xrotation Yrotation
                  JOINT LeftHand
                  {
                    OFFSET 0 14.6514 0
                    CHANNELS 3 Zrotation Xrotation Yrotation
                    End Site
                    {
                      OFFSET 0 0 0
                    }
                  }
                }
              }
            }
          }
        }
      }
    }
  }
  JOINT RightUpLeg
  {
    OFFSET -6.06837 -1.11278 -0.933477
    CHANNELS 3 Zrotation Xrotation Yrotation
    JOINT RightUpLegRoll
    {
      OFFSET 0 17.1796 0
      CHANNELS 3 Zrotation Xrotation Yrotation
      JOINT RightLeg
      {
        OFFSET 0 -21.2743 0
        CHANNELS 3 Zrotation Xrotation Yrotation
        JOINT RightLegRoll
        {
          OFFSET 0 21.3439 0
          CHANNELS 3 Zrotation Xrotation Yrotation
          JOINT RightFoot
          {
            OFFSET 0 17.7652 0
            CHANNELS 3 Zrotation Xrotation Yrotation
            JOINT RightToeBase
            {
              OFFSET 0 14.8508 0
              CHANNELS 3 Zrotation Xrotation Yrotation
              End Site
              {
                OFFSET 0.0062947 7.19214 -0.829004
              }
            }
          }
        }
      }
    }
  }
  JOINT LeftUpLeg
  {
    OFFSET 6.06837 -1.11278 -0.933477
    CHANNELS 3 Zrotation Xrotation Yrotation
    JOINT LeftUpLegRoll
    {
      OFFSET 0 17.1797 0
      CHANNELS 3 Zrotation Xrotation Yrotation
      JOINT LeftLeg
      {
        OFFSET 0 21.2742 0
        CHANNELS 3 Zrotation Xrotation Yrotation
        JOINT LeftLegRoll
        {
          OFFSET 0 21.5412 0
          CHANNELS 3 Zrotation Xrotation Yrotation
          JOINT LeftFoot
          {
            OFFSET 0 17.5679 0
            CHANNELS 3 Zrotation Xrotation Yrotation
            JOINT LeftToeBase
            {
              OFFSET 0 14.8508 0
              CHANNELS 3 Zrotation Xrotation Yrotation
              End Site
              {
                OFFSET -0.0282102 7.19214 -0.829005
              }
            }
          }
        }
      }
    }
  }
}
MOTION
Frames: 14
Frame Time: 0.00208333
53.3178 56.3072 -3.80808 2.00315 24.4858 -7.37095 -0.0860243 0.809752 0.924618 -0.194994 5.62093 1.86295 -0.217877 7.26564 1.86895 -16.1918 1.4679 -0.357031 14.3071 15.3005 -4.3651 43.2846 -6.989 -3.62624 134.431 44.4297 -57.1974 -3.23071e-006 -9.41474e-007 -3.46837e-006 23.2572 34.2508 -2.96428 3.02955e-006 7.77251e-006 -3.0038 8.03 -4.9514 0.697713 -63.0723 -8.64644 5.43791 -111.648 43.8716 54.9353 1.82793e-006 -1.76294e-006 1.13829e-006 -38.9574 48.1333 13.1908 -2.93775e-005 3.33232e-006 3 -8.02987 -4.9514 -0.697696 10.7491 76.2184 169.949 -180 7.01582e-015 179.088 -171.964 86.7164 170.693 2.78423e-006 2.67556e-006 1.83239 -19.3424 70.9559 22.1946 8.13649 25.2327 -3.48774 -37.9619 75.1218 -147.456 4.54188e-006 -4.6773e-006 -0.793922 151.032 -84.8225 154.785 -5.18302e-006 -2.55945e-006 -2.73371 40.2612 79.336 -40.7423 -8.13416 25.234 3.48666 
53.3229 56.242 -3.84414 2.0046 24.4033 -7.34592 -0.0904685 0.801269 0.924478 -0.203772 5.6039 1.86327 -0.226674 7.24861 1.86942 -16.1644 1.509 -0.36166 14.2798 15.2702 -4.3645 43.3228 -6.98873 -3.62792 134.381 44.4502 -57.1087 -3.23071e-006 -9.41474e-007 -3.46837e-006 23.278 34.1812 -2.96408 3.02955e-006 7.77251e-006 -3.0038 8.03 -4.9514 0.697713 -63.0594 -8.63173 5.42908 -111.653 43.8654 54.9362 1.82793e-006 -1.76294e-006 1.13829e-006 -38.9308 48.1841 13.207 -2.93775e-005 3.33232e-006 3 -8.02987 -4.9514 -0.697696 10.8987 76.1866 169.802 -180 7.01582e-015 179.088 -171.595 86.7826 170.337 2.78423e-006 2.67556e-006 1.83465 -19.31 70.9201 22.1574 8.13649 25.2327 -3.48774 -37.8249 75.1191 -147.614 4.54188e-006 -4.6773e-006 -0.798089 151.074 -84.7563 154.807 -5.18302e-006 -2.55945e-006 -2.73798 40.1118 79.304 -40.5994 -8.13383 25.2293 3.48653 
53.3309 56.1791 -3.88001 2.00784 24.326 -7.31862 -0.0951649 0.791348 0.92398 -0.213024 5.58398 1.86292 -0.235938 7.22869 1.86921 -16.1333 1.55578 -0.366104 14.2493 15.2364 -4.36312 43.3662 -6.98714 -3.62874 134.323 44.4691 -57.0209 -3.23071e-006 -9.41474e-007 -3.46837e-006 23.2989 34.1135 -2.9632 3.02955e-006 7.77251e-006 -3.0038 8.03 -4.9514 0.697713 -63.0443 -8.61483 5.41893 -111.658 43.8569 54.937 1.82793e-006 -1.76294e-006 1.13829e-006 -38.9033 48.2385 13.2247 -2.93775e-005 3.33232e-006 3 -8.02987 -4.9514 -0.697696 11.0593 76.1481 169.641 -180 7.01582e-015 179.088 -171.22 86.8495 169.974 2.78423e-006 2.67556e-006 1.83668 -19.2776 70.8846 22.1208 8.13649 25.2327 -3.48774 -37.6658 75.1151 -147.794 4.54188e-006 -4.6773e-006 -0.802501 151.123 -84.6921 154.838 -5.18302e-006 -2.55945e-006 -2.74171 39.9697 79.2731 -40.463 -8.13335 25.2222 3.48633 
53.3363 56.1141 -3.91565 2.01268 24.2533 -7.28925 -0.100077 0.780154 0.923136 -0.22268 5.56152 1.86189 -0.245598 7.20623 1.86833 -16.0993 1.60734 -0.37032 14.2161 15.1995 -4.36103 43.4137 -6.98436 -3.62879 134.26 44.4868 -56.9337 -3.23071e-006 -9.41474e-007 -3.46837e-006 23.3199 34.047 -2.96171 3.02955e-006 7.77251e-006 -3.0038 8.03 -4.9514 0.697713 -63.0277 -8.59612 5.40768 -111.664 43.8466 54.9379 1.82793e-006 -1.76294e-006 1.13829e-006 -38.8755 48.2958 13.2437 -2.93775e-005 3.33232e-006 3 -8.02987 -4.9514 -0.697696 11.2291 76.1038 169.47 -180 7.01582e-015 179.089 -170.839 86.9169 169.606 2.78423e-006 2.67556e-006 1.83851 -19.2452 70.8493 22.0846 8.13649 25.2327 -3.48774 -37.4868 75.1098 -147.994 4.54188e-006 -4.6773e-006 -0.807116 151.18 -84.63 154.877 -5.18302e-006 -2.55945e-006 -2.74491 39.8323 79.2426 -40.3304 -8.13276 25.2136 3.48608 
53.3438 56.0535 -3.9502 2.01891 24.1848 -7.25801 -0.105168 0.767854 0.921955 -0.232669 5.53684 1.86021 -0.255584 7.18155 1.86681 -16.0632 1.66279 -0.374266 14.181 15.1602 -4.35834 43.4647 -6.98057 -3.62814 134.191 44.5036 -56.8471 -3.23071e-006 -9.41474e-007 -3.46837e-006 23.3412 33.981 -2.95968 3.02955e-006 7.77251e-006 -3.0038 8.03 -4.9514 0.697713 -63.01 -8.57594 5.39556 -111.669 43.8353 54.9389 1.82793e-006 -1.76294e-006 1.13829e-006 -38.8478 48.3554 13.2638 -2.93775e-005 3.33232e-006 3 -8.02987 -4.9514 -0.697696 11.4067 76.0543 169.29 -180 7.01582e-015 179.09 -170.453 86.9846 169.233 2.78423e-006 2.67556e-006 1.84015 -19.2128 70.8142 22.0489 8.13649 25.2327 -3.48774 -37.29 75.1032 -148.212 4.54188e-006 -4.6773e-006 -0.81189 151.244 -84.5697 154.923 -5.18302e-006 -2.55945e-006 -2.74763 39.697 79.2121 -40.1991 -8.1321 25.204 3.48581 
53.35 55.9924 -3.99106 2.02633 24.1201 -7.22513 -0.110401 0.754615 0.920446 -0.242923 5.51029 1.85789 -0.265827 7.155 1.86465 -16.0257 1.72123 -0.377901 14.1447 15.1187 -4.35512 43.5181 -6.9759 -3.62689 134.12 44.52 -56.7607 -3.23071e-006 -9.41474e-007 -3.46837e-006 23.363 33.9147 -2.95719 3.02955e-006 7.77251e-006 -3.0038 8.03 -4.9514 0.697713 -62.9921 -8.55465 5.38279 -111.673 43.8236 54.9404 1.82793e-006 -1.76294e-006 1.13829e-006 -38.8207 48.4166 13.2848 -2.93775e-005 3.33232e-006 3 -8.02987 -4.9514 -0.697696 11.5905 76.0004 169.102 -180 7.01583e-015 179.091 -170.062 87.0523 168.853 2.78423e-006 2.67556e-006 1.8416 -19.1804 70.7791 22.0134 8.13649 25.2327 -3.48774 -37.0776 75.0952 -148.445 4.54188e-006 -4.6773e-006 -0.816781 151.314 -84.5114 154.975 -5.18302e-006 -2.55945e-006 -2.7499 39.5612 79.1809 -40.0667 -8.13143 25.1942 3.48554 
53.3637 55.933 -4.02206 2.03475 24.0587 -7.1908 -0.115741 0.740604 0.91862 -0.253369 5.48218 1.85495 -0.276255 7.1269 1.86187 -15.9876 1.78176 -0.381182 14.1077 15.0758 -4.35146 43.5732 -6.97053 -3.62512 134.046 44.5361 -56.6745 -3.23071e-006 -9.41474e-007 -3.46837e-006 23.3852 33.8473 -2.95429 3.02955e-006 7.77251e-006 -3.0038 8.03 -4.9514 0.697713 -62.9744 -8.53262 5.3696 -111.675 43.812 54.9426 1.82793e-006 -1.76294e-006 1.13829e-006 -38.7946 48.4788 13.3066 -2.93775e-005 3.33232e-006 3 -8.02987 -4.9514 -0.697696 11.7789 75.9429 168.908 -180 7.01583e-015 179.093 -169.665 87.1197 168.469 2.78423e-006 2.67556e-006 1.8429 -19.1481 70.7441 21.9783 8.13649 25.2327 -3.48774 -36.852 75.086 -148.691 4.54188e-006 -4.6773e-006 -0.821744 151.39 -84.4547 155.034 -5.18302e-006 -2.55945e-006 -2.75174 39.4226 79.1484 -39.9306 -8.13079 25.1848 3.48527 
53.3684 55.871 -4.06129 2.04396 24.0001 -7.15522 -0.12115 0.725989 0.916487 -0.263939 5.45287 1.8514 -0.286798 7.09759 1.85848 -15.9495 1.84349 -0.384069 14.0709 15.0317 -4.34747 43.629 -6.9646 -3.62293 133.972 44.5525 -56.5882 -3.23071e-006 -9.41474e-007 -3.46837e-006 23.4081 33.7783 -2.95106 3.02955e-006 7.77251e-006 -3.0038 8.03 -4.9514 0.697713 -62.9577 -8.51019 5.35619 -111.676 43.8014 54.9455 1.82793e-006 -1.76294e-006 1.13829e-006 -38.7699 48.5411 13.329 -2.93775e-005 3.33232e-006 3 -8.02987 -4.9514 -0.697696 11.9706 75.8826 168.709 -180 7.01583e-015 179.094 -169.265 87.1866 168.08 2.78423e-006 2.67556e-006 1.84404 -19.1157 70.7091 21.9434 8.13649 25.2327 -3.48774 -36.6153 75.0753 -148.948 4.54188e-006 -4.6773e-006 -0.826738 151.471 -84.3998 155.099 -5.18302e-006 -2.55945e-006 -2.75318 39.2786 79.1141 -39.7886 -8.13023 25.1766 3.48504 
53.3764 55.8173 -4.09476 2.05375 23.9439 -7.11862 -0.126593 0.710935 0.914056 -0.274561 5.42269 1.84725 -0.297387 7.0674 1.8545 -15.9124 1.90552 -0.386517 14.0347 14.9871 -4.34321 43.6848 -6.95826 -3.62039 133.899 44.5693 -56.5017 -3.23071e-006 -9.41474e-007 -3.46837e-006 23.4317 33.7068 -2.94757 3.02955e-006 7.77251e-006 -3.00379 8.03 -4.9514 0.697713 -62.9424 -8.48773 5.34281 -111.675 43.7924 54.9495 1.82793e-006 -1.76294e-006 1.13829e-006 -38.7472 48.6031 13.3516 -2.93775e-005 3.33232e-006 3 -8.02987 -4.9514 -0.697696 12.1642 75.8202 168.508 -180 7.01584e-015 179.096 -168.861 87.2527 167.688 2.78423e-006 2.67556e-006 1.84505 -19.0834 70.6741 21.9086 8.13649 25.2327 -3.48774 -36.3698 75.0633 -149.213 4.54188e-006 -4.6773e-006 -0.831718 151.557 -84.3465 155.169 -5.18302e-006 -2.55945e-006 -2.75426 39.1269 79.0774 -39.6382 -8.12979 25.1703 3.48486 
53.3886 55.7511 -4.12647 2.06394 23.8896 -7.08119 -0.132032 0.695611 0.911338 -0.285166 5.39196 1.84253 -0.307952 7.03668 1.84994 -15.8769 1.96695 -0.388487 14 14.9423 -4.33879 43.7395 -6.95168 -3.6176 133.828 44.5871 -56.4147 -3.23071e-006 -9.41474e-007 -3.46837e-006 23.4561 33.6321 -2.94388 3.02955e-006 7.77251e-006 -3.00379 8.03 -4.9514 0.697713 -62.9294 -8.46559 5.32967 -111.672 43.7855 54.9547 1.82793e-006 -1.76294e-006 1.13829e-006 -38.7268 48.6639 13.3744 -2.93775e-005 3.33232e-006 3 -8.02987 -4.9514 -0.697696 12.3584 75.7565 168.305 -180 7.01584e-015 179.098 -168.454 87.3178 167.293 2.78423e-006 2.67556e-006 1.84593 -19.051 70.6391 21.8739 8.13649 25.2327 -3.48774 -36.1177 75.05 -149.484 4.54188e-006 -4.6773e-006 -0.836642 151.648 -84.2948 155.244 -5.18302e-006 -2.55945e-006 -2.75501 38.9652 79.0377 -39.4774 -8.12953 25.1665 3.48475 
53.3973 55.6922 -4.16208 2.07431 23.8368 -7.04314 -0.137431 0.680182 0.908342 -0.295684 5.36103 1.83725 -0.318422 7.00575 1.84481 -15.8438 2.02689 -0.389935 13.9673 14.898 -4.33429 43.7924 -6.94501 -3.61465 133.761 44.606 -56.3271 -3.23071e-006 -9.41474e-007 -3.46837e-006 23.4815 33.5535 -2.94008 3.02955e-006 7.77251e-006 -3.00379 8.03 -4.9514 0.697713 -62.9192 -8.44415 5.317 -111.666 43.7815 54.9614 1.82793e-006 -1.76294e-006 1.13829e-006 -38.7093 48.7229 13.397 -2.93775e-005 3.33232e-006 3 -8.02987 -4.9514 -0.697696 12.5519 75.6922 168.102 -180 7.01584e-015 179.099 -168.046 87.3817 166.896 2.78423e-006 2.67556e-006 1.84671 -19.0188 70.6039 21.8392 8.13649 25.2327 -3.48774 -35.8611 75.0354 -149.758 4.54188e-006 -4.6773e-006 -0.841467 151.742 -84.2445 155.323 -5.18302e-006 -2.55945e-006 -2.75545 38.7914 78.9943 -39.3039 -8.12949 25.1659 3.48474 
53.4072 55.6298 -4.19452 2.08466 23.7849 -7.00468 -0.142754 0.664815 0.905079 -0.306043 5.33022 1.83142 -0.328727 6.97494 1.83914 -15.8139 2.08443 -0.390819 13.9374 14.8545 -4.32979 43.8425 -6.93841 -3.61161 133.699 44.6265 -56.2387 -3.23071e-006 -9.41474e-007 -3.46837e-006 23.5079 33.4702 -2.93622 3.02955e-006 7.77251e-006 -3.00379 8.03 -4.9514 0.697713 -62.9124 -8.42374 5.30501 -111.656 43.781 54.9697 1.82793e-006 -1.76294e-006 1.13829e-006 -38.6949 48.7795 13.4194 -2.93775e-005 3.33232e-006 3 -8.02987 -4.9514 -0.697696 12.7436 75.6283 167.901 -180 7.01585e-015 179.101 -167.639 87.444 166.5 2.78423e-006 2.67556e-006 1.8474 -18.9865 70.5687 21.8044 8.13649 25.2327 -3.48774 -35.6024 75.0195 -150.034 4.54188e-006 -4.6773e-006 -0.84615 151.841 -84.1957 155.407 -5.18302e-006 -2.55945e-006 -2.75562 38.6033 78.9467 -39.1156 -8.12972 25.1692 3.48483 
53.421 55.578 -4.2258 2.0948 23.7336 -6.96603 -0.147964 0.649678 0.901558 -0.316174 5.29988 1.82506 -0.338796 6.9446 1.83292 -15.7879 2.13868 -0.391098 13.9108 14.8125 -4.32538 43.8891 -6.93202 -3.60859 133.644 44.6489 -56.1491 -3.23071e-006 -9.41474e-007 -3.46837e-006 23.5355 33.3816 -2.93237 3.02955e-006 7.77251e-006 -3.00379 8.03 -4.9514 0.697713 -62.9096 -8.40473 5.29392 -111.643 43.7847 54.9798 1.82793e-006 -1.76294e-006 1.13829e-006 -38.6843 48.8329 13.4412 -2.93775e-005 3.33232e-006 3 -8.02987 -4.9514 -0.697696 12.9324 75.5654 167.702 -180 7.01585e-015 179.103 -167.234 87.5045 166.105 2.78423e-006 2.67556e-006 1.84801 -18.9542 70.5333 21.7695 8.13649 25.2327 -3.48774 -35.3437 75.0024 -150.309 4.54188e-006 -4.6773e-006 -0.850646 151.942 -84.1481 155.493 -5.18302e-006 -2.55945e-006 -2.75556 38.3988 78.8942 -38.9107 -8.13027 25.1772 3.48506 
53.4324 55.5191 -4.26749 2.10452 23.6824 -6.92738 -0.153024 0.634938 0.89779 -0.326005 5.27033 1.81818 -0.348558 6.91506 1.82619 -15.7666 2.18875 -0.390729 13.8883 14.7723 -4.32116 43.9312 -6.92601 -3.60566 133.596 44.6735 -56.0584 -3.23071e-006 -9.41474e-007 -3.46837e-006 23.5643 33.2869 -2.92862 3.02955e-006 7.77251e-006 -3.00379 8.03 -4.9514 0.697713 -62.9115 -8.38749 5.28397 -111.626 43.7932 54.9919 1.82793e-006 -1.76294e-006 1.13829e-006 -38.6777 48.8826 13.4623 -2.93775e-005 3.33232e-006 3 -8.02987 -4.9514 -0.697696 13.1172 75.5043 167.506 -180 7.01585e-015 179.105 -166.833 87.5631 165.715 2.78423e-006 2.67556e-006 1.84856 -18.922 70.4977 21.7345 8.13649 25.2327 -3.48774 -35.0871 74.9841 -150.58 4.54188e-006 -4.6773e-006 -0.854914 152.046 -84.1018 155.584 -5.18302e-006 -2.55945e-006 -2.75528 38.1763 78.8363 -38.6873 -8.13118 25.1905 3.48543 
